<?xml version="1.0" encoding="utf-8"?>
<!-- Generator: Adobe Illustrator 19.1.1, SVG Export Plug-In . SVG Version: 6.00 Build 0)  -->
<svg version="1.1" id="Layer_1" xmlns:sketch="http://www.bohemiancoding.com/sketch/ns"
	 xmlns="http://www.w3.org/2000/svg" xmlns:xlink="http://www.w3.org/1999/xlink" x="0px" y="0px" viewBox="-99 100.5 84 84"
	 style="enable-background:new -99 100.5 84 84;" xml:space="preserve">
<style type="text/css">
	.st0{fill:#EEEEEE;}
	.st1{fill:#FFFFFF;}
	.st2{fill:none;stroke:#F2EDED;}
	.st3{fill:#005EB8;}
	.st4{fill:none;stroke:#EEEEEE;stroke-width:8;stroke-miterlimit:10;}
	.st5{fill:none;stroke:#005EB8;stroke-width:4;stroke-miterlimit:10;}
</style>
<g>
	<g sketch:type="MSShapeGroup">
		<g id="path-1">
			<path class="st0" d="M-58.2,182.2c-21.4,0-38.8-17.4-38.8-38.8v-2c0-21.4,17.4-38.8,38.8-38.8h2c21.4,0,38.8,17.4,38.8,38.8v2
				c0,21.4-17.4,38.8-38.8,38.8H-58.2z"/>
			<path class="st1" d="M-56.2,103.7c20.8,0,37.8,16.9,37.8,37.8v2c0,20.8-16.9,37.8-37.8,37.8h-2c-20.8,0-37.8-16.9-37.8-37.8v-2
				c0-20.8,16.9-37.8,37.8-37.8H-56.2 M-56.2,101.7h-2c-22,0-39.8,17.8-39.8,39.8v2c0,22,17.8,39.8,39.8,39.8h2
				c22,0,39.8-17.8,39.8-39.8v-2C-16.4,119.5-34.2,101.7-56.2,101.7L-56.2,101.7z"/>
		</g>
	</g>
	<g>
		<path id="path-1_1_" class="st2" d="M-58.2,101.7h2c22,0,39.8,17.8,39.8,39.8v2c0,22-17.8,39.8-39.8,39.8h-2
			c-22,0-39.8-17.8-39.8-39.8v-2C-97.9,119.5-80.1,101.7-58.2,101.7z"/>
	</g>
</g>
<g>
	<g>
		<rect x="-79" y="137.3" class="st3" width="6.2" height="13.7"/>
		<rect x="-70.2" y="132.3" class="st3" width="6.2" height="18.6"/>
		<rect x="-61.5" y="127.3" class="st3" width="6.2" height="23.6"/>
	</g>
	<g>
		<polyline class="st4" points="-38.3,156.4 -46.1,156.4 -52.7,144.1 -60.3,159 -66.2,153.7 -71.9,164 -79.8,164 		"/>
		<polyline class="st5" points="-37.9,156.4 -46.1,156.4 -52.7,144.1 -60.3,159 -66.2,153.7 -71.9,164 -78.8,164 		"/>
	</g>
	<g>
		<path id="XMLID_49_" class="st3" d="M-41.2,139.9v0.7c0,0.5-0.4,1-0.9,1.1l-0.2,0.6c-0.1,0.3-0.4,0.6-0.7,0.6h-1.7
			c-0.4,0-0.6-0.2-0.7-0.6l-0.2-0.6c-0.5-0.1-1-0.5-1-1.1v-0.7c0-0.4,0.3-0.7,0.7-0.7h4.1C-41.5,139.2-41.2,139.5-41.2,139.9z
			 M-38.1,130.6c0,1.5-0.6,3-1.7,4.1c-0.7,0.8-1.3,1.8-1.4,2.9c-0.1,0.5-0.5,0.8-1,0.8h-3.6c-0.5,0-0.9-0.3-1-0.8
			c-0.2-1.1-0.7-2.1-1.4-2.9c-1-1-1.6-2.5-1.6-4c-0.1-3.3,2.6-5.9,5.8-5.9C-40.7,124.7-38.1,127.4-38.1,130.6z M-43.3,127
			c0-0.4-0.3-0.6-0.6-0.6c-2.3,0-4.2,1.9-4.2,4.2c0,0.4,0.3,0.6,0.6,0.6c0.4,0,0.6-0.3,0.6-0.6c0-1.6,1.3-2.9,2.9-2.9
			C-43.6,127.7-43.3,127.4-43.3,127z M-43.9,123.4c0.4,0,0.6-0.3,0.6-0.6v-1.2c0-0.4-0.3-0.6-0.6-0.6c-0.4,0-0.6,0.3-0.6,0.6v1.2
			C-44.6,123.1-44.3,123.4-43.9,123.4z M-51.3,130.6c0-0.4-0.3-0.6-0.6-0.6h-1.2c-0.4,0-0.6,0.3-0.6,0.6c0,0.4,0.3,0.6,0.6,0.6h1.2
			C-51.6,131.2-51.3,130.9-51.3,130.6z M-34.9,129.9h-1.2c-0.4,0-0.6,0.3-0.6,0.6s0.3,0.6,0.6,0.6h1.2c0.4,0,0.6-0.3,0.6-0.6
			C-34.2,130.2-34.6,129.9-34.9,129.9z M-49.9,135.7l-0.8,0.8c-0.3,0.3-0.3,0.7,0,0.9c0.1,0.1,0.3,0.2,0.5,0.2s0.3-0.1,0.5-0.2
			l0.8-0.8c0.3-0.3,0.3-0.7,0-0.9C-49.2,135.4-49.6,135.4-49.9,135.7z M-38.6,125.8c0.2,0,0.3-0.1,0.5-0.2l0.9-1
			c0.3-0.3,0.3-0.7,0-0.9c-0.3-0.3-0.7-0.3-0.9,0l-0.9,1c-0.3,0.3-0.3,0.7,0,0.9C-38.9,125.8-38.7,125.8-38.6,125.8z M-49.9,125.5
			c0.1,0.1,0.3,0.2,0.5,0.2c0.2,0,0.3-0.1,0.5-0.2c0.3-0.3,0.3-0.7,0-0.9l-0.8-0.7c-0.3-0.3-0.7-0.3-0.9,0c-0.3,0.3-0.3,0.7,0,0.9
			L-49.9,125.5z M-38.1,135.6c-0.3-0.3-0.7-0.3-0.9,0c-0.3,0.3-0.3,0.7,0,0.9l0.8,0.8c0.1,0.1,0.3,0.2,0.5,0.2
			c0.2,0,0.3-0.1,0.5-0.2c0.3-0.3,0.3-0.7,0-0.9L-38.1,135.6z"/>
	</g>
</g>
</svg>
